# This file uses meters as units for non-parametric coordinates.

mtllib testestest.mtl
g default
v 1025.451499 56.495761 912.196608
v 1038.011536 56.495761 912.196608
v 1025.451499 185.064947 912.196608
v 1038.011536 185.064947 912.196608
v 1025.451499 185.064947 -1173.193894
v 1038.011536 185.064947 -1173.193894
v 1025.451499 56.495761 -1173.193894
v 1038.011536 56.495761 -1173.193894
v 1038.011536 185.064947 -1158.207201
v 1025.451499 185.064947 -1158.207201
v 1025.451499 56.495761 -1158.207201
v 1038.011536 56.495761 -1158.207201
v 708.913922 56.495760 -1172.850392
v 713.021865 56.495760 -1158.550703
v 713.021865 185.064947 -1158.550703
v 708.913922 185.064947 -1172.850392
v 1038.011536 185.064947 898.368891
v 1025.451499 185.064947 898.368891
v 1025.451499 56.495761 898.368891
v 1038.011536 56.495761 898.368891
v 703.804830 56.495756 901.843689
v 697.239965 56.495756 913.668150
v 697.239965 185.064947 913.668150
v 703.804830 185.064947 901.843689
v 561.449112 185.064947 625.263297
v 567.553806 161.931191 -1004.577284
v 713.021865 161.931191 -1158.550703
v 1025.451499 161.931191 -1158.207201
v 1025.451499 161.931191 898.368891
v 703.804830 161.931191 901.843841
v 561.448973 161.931191 625.263373
v 574.468623 185.064947 -121.381833
v 574.812923 56.495761 -218.497769
v 562.253235 161.931191 -218.550898
v 562.253235 56.495761 -218.550898
v 574.813097 185.064947 -218.550898
v 562.253235 185.064947 -218.550898
v 574.812923 161.931191 -218.497826
v 561.908691 161.931191 -121.381833
v 561.908760 56.495761 -121.381833
v 574.468623 56.495761 -121.381833
v 574.468379 161.931191 -121.328752
v 561.908691 185.064947 -121.381833
v 567.553806 56.495760 -1004.577284
v 578.317451 56.495760 -998.104690
v 578.317451 185.064947 -998.104690
v 567.553806 185.064947 -1004.577284
v 573.953011 56.495761 623.971125
v 561.448973 56.495761 625.263373
v 573.953115 185.064947 623.971125
v 578.317504 161.931191 -998.104690
v 573.953011 161.931191 623.971125
v 567.553823 161.931191 -1004.577284
v 567.553823 56.495761 -1004.577284
v 578.317469 56.495761 -998.104690
v 567.553823 185.064947 -1004.577284
v 578.317521 161.931191 -998.104690
v 697.239965 163.587777 913.668150
v 1025.451499 163.587777 912.196608
v 1038.011536 163.587777 912.196608
v 1038.011536 163.587777 898.368891
v 1038.011536 163.587777 -1158.207201
v 1038.011536 163.587777 -1173.193894
v 1025.451499 163.587777 -1173.193894
v 708.913922 163.587777 -1172.850392
vt 0.346121 -0.005852
vt 0.476459 -0.053586
vt 0.222445 0.367960
vt 0.811085 0.151797
vt 0.318832 0.539518
vt 0.848613 0.345024
vt 0.439124 0.615206
vt 0.805848 0.480584
vt 0.597832 0.683634
vt 0.728926 0.635509
vt 0.645313 -0.089156
vt 0.767309 -0.014847
vt 0.196088 0.068588
vt 0.145804 0.219635
vt 0.848555 0.343725
vt 0.767763 -0.013842
vt 0.147891 0.215894
vt 0.318034 0.538486
vt 0.195361 0.072929
vt 0.440135 0.615890
vt 0.805518 0.481753
vt 0.644211 -0.089096
vt 0.175543 0.131083
vt 0.175759 0.130552
vt 0.164598 0.164112
vt 0.165279 0.161776
vt 0.811177 0.153105
vt 0.811810 0.150297
vt 0.221392 0.366965
vt 0.223200 0.368959
vt 0.345191 -0.005563
vt 0.596864 0.683375
vt 0.729497 0.634686
vt 0.476680 -0.053644
vt 0.287192 0.170577
vt 0.289847 0.163252
vt 0.244541 0.299843
vt 0.253657 0.271000
vt 0.642413 0.012653
vt 0.719509 0.026703
vt 0.671203 0.128913
vt 0.666614 0.120178
vt 0.297857 1.199117
vt 0.163293 0.168327
vt 0.159119 0.185503
vt 0.246046 0.289695
vt 0.251322 0.277948
vt 0.679716 0.109669
vt 0.667605 0.101348
vt 0.446745 0.291332
vt 0.565439 0.343064
vt -0.034876 0.315269
vt 0.060789 0.140665
vt 0.041018 0.272290
vt 0.015806 0.183883
vt 0.702906 0.777219
vt 0.709903 0.784157
vt 1.304681 0.313243
vt 1.263802 0.395841
vt 0.049744 0.302315
vt 1.254921 0.413987
vt 0.046673 0.291783
vt 0.434689 0.220132
vt 0.000000 0.000000
vt 0.000000 0.000000
vt 0.000000 0.000000
vt 0.000000 0.000000
vt 0.000000 0.000000
vt 0.000000 0.000000
vt 0.000000 0.000000
vt 0.000000 0.000000
vt 0.000000 0.000000
vt -0.022344 -0.017147
vt 0.000000 0.000000
vt 0.000000 0.000000
vt 0.243021 0.071493
vt 0.000000 0.000000
vt -0.007554 -0.008666
vt 0.008735 -0.000744
vt 0.086803 0.141450
vt 0.233588 0.192095
vt 0.261545 0.110525
vt -0.022377 -0.017141
vt -0.012842 -0.006856
vt -0.011851 -0.000175
vt 0.236697 0.185900
vt 0.111917 0.166559
vt 0.080332 0.119539
vt 0.109965 0.109758
vt 0.118364 0.109520
vt -0.011807 -0.000490
vt 0.120355 0.178779
vt -0.022377 -0.017142
vt 0.111857 0.179031
vt 0.262741 0.113402
vt -0.012987 -0.007588
vt 0.119609 0.166335
vt 0.000000 0.000000
vt -0.022343 -0.017146
vt 0.547619 0.357598
vt 0.443629 0.297540
vt 0.000000 0.000000
vt 0.060370 0.137422
vt 0.000000 0.000000
vt 0.008740 -0.000414
vt -0.040479 0.295858
vt 0.249492 0.093406
vt 0.000000 0.000000
vt -0.007409 -0.007934
vt 0.452509 0.205598
vt 0.290177 1.192929
vt 0.462261 0.725877
vt 0.832757 -0.279588
vt 0.681200 0.112976
vt 0.672694 0.131704
vt 0.668537 0.123810
vt 0.671774 0.116616
vt 0.245588 0.296767
vt 0.243105 0.305516
vt 0.755187 0.117488
vt 0.755828 0.116229
vt 0.747124 -0.026413
vt 0.841469 0.367669
vt 0.746930 -0.027260
vt 0.338927 0.552161
vt 0.154204 0.194403
vt 0.163245 0.168132
vt 0.113246 0.179003
vt 0.119398 0.178825
vt 0.119044 0.166361
vt 0.117467 0.109560
vt 0.111256 0.109730
vt 0.112896 0.166537
vt 0.114219 0.178964
vt 0.122670 0.178718
vt 0.122090 0.166261
vt 0.120648 0.109460
vt 0.112222 0.109695
vt 0.113454 0.167407
vn 0.004318 0.000000 0.999991
vn 0.000000 0.000000 1.000000
vn 0.000000 0.000000 1.000000
vn 0.004318 0.000000 0.999991
vn 0.000000 1.000000 0.000000
vn 0.000000 1.000000 0.000000
vn 0.000000 1.000000 0.000000
vn 0.000000 1.000000 0.000000
vn -0.001044 0.000000 -0.999999
vn 0.000000 0.000000 -1.000000
vn 0.000000 0.000000 -1.000000
vn -0.001044 0.000000 -0.999999
vn 0.000000 -1.000000 0.000000
vn 0.000000 -1.000000 0.000000
vn 0.000000 -1.000000 0.000000
vn 0.000000 -1.000000 0.000000
vn 1.000000 0.000000 0.000000
vn 1.000000 0.000000 0.000000
vn 1.000000 0.000000 0.000000
vn 1.000000 0.000000 0.000000
vn 0.000000 1.000000 0.000000
vn 0.000000 1.000000 0.000000
vn 0.000000 1.000000 0.000000
vn 0.000000 1.000000 0.000000
vn 0.000000 -1.000000 0.000000
vn 0.000000 -1.000000 0.000000
vn 0.000000 -1.000000 0.000000
vn 0.000000 -1.000000 0.000000
vn 1.000000 0.000000 0.000000
vn 1.000000 0.000000 0.000000
vn 1.000000 0.000000 0.000000
vn 1.000000 0.000000 0.000000
vn 0.000000 -1.000000 0.000000
vn 0.000000 -1.000000 0.000000
vn -0.001099 0.000000 0.999999
vn -0.001099 0.000000 0.999999
vn -0.001099 0.000000 0.999999
vn -0.001099 0.000000 0.999999
vn 0.000000 1.000000 0.000000
vn 0.000000 1.000000 0.000000
vn -0.001085 0.000000 -0.999999
vn -0.001085 0.000000 -0.999999
vn -1.000000 0.000000 0.000000
vn -1.000000 0.000000 0.000000
vn -1.000000 0.000000 0.000000
vn -1.000000 0.000000 0.000000
vn 0.000000 -1.000000 0.000000
vn 0.000000 -1.000000 0.000000
vn 0.004483 0.000000 0.999990
vn 0.004484 0.000000 0.999990
vn 0.000000 1.000000 0.000000
vn 0.000000 1.000000 0.000000
vn -0.010803 -0.000003 -0.999942
vn -0.010803 -0.000000 -0.999942
vn -0.010803 -0.000000 -0.999942
vn -0.010803 -0.000003 -0.999942
vn 0.000000 -1.000000 -0.000000
vn 0.000000 -1.000000 -0.000000
vn -0.000000 -1.000000 -0.000000
vn -0.000000 -1.000000 -0.000000
vn 0.992106 0.000001 -0.125406
vn 1.000000 0.000001 0.000692
vn 1.000000 -0.000000 0.000692
vn 0.992105 -0.000000 -0.125406
vn -1.000000 -0.000000 -0.000616
vn -0.991466 -0.000000 0.130369
vn -0.991532 0.000000 0.129859
vn -1.000000 0.000000 -0.000683
vn -0.001099 0.000000 0.999999
vn -0.001099 0.000000 0.999999
vn -1.000000 0.000000 0.000000
vn -1.000000 0.000000 0.000000
vn -0.010802 0.000001 -0.999942
vn -0.010802 0.000001 -0.999942
vn -1.000000 0.000003 -0.000953
vn -0.991992 0.000003 0.126302
vn -0.999980 0.000000 -0.006392
vn -0.999980 0.000000 -0.006392
vn 0.000000 -1.000000 0.000000
vn 0.000000 -1.000000 0.000000
vn 0.000000 -1.000000 0.000000
vn 0.000000 -1.000000 0.000000
vn 0.000000 1.000000 0.000000
vn 0.000000 1.000000 0.000000
vn 0.000000 1.000000 0.000000
vn 0.000000 1.000000 0.000000
vn 0.999994 -0.000001 0.003545
vn 0.999990 0.000002 0.004390
vn 0.999990 0.000002 0.004390
vn 0.999994 -0.000001 0.003545
vn -0.004227 0.000000 0.999991
vn -0.004227 0.000000 0.999991
vn -0.004227 0.000000 0.999991
vn -0.004227 0.000000 0.999991
vn 0.002113 0.000252 -0.999998
vn 0.002113 0.000252 -0.999998
vn 0.002113 0.000252 -0.999998
vn 0.002113 0.000252 -0.999998
vn 1.000000 -0.000006 0.000692
vn 0.992105 -0.000005 -0.125406
vn 0.000000 1.000000 -0.000000
vn 0.000000 1.000000 -0.000000
vn 0.000000 1.000000 -0.000000
vn 0.000000 1.000000 -0.000000
vn -0.999977 0.000000 -0.006743
vn -0.999977 0.000000 -0.006743
vn 0.000000 1.000000 0.000000
vn 0.000000 1.000000 0.000000
vn 0.999990 0.000002 0.004495
vn 0.999990 0.000002 0.004495
vn 0.999990 -0.000000 0.004495
vn 0.999990 -0.000000 0.004495
vn 0.999990 -0.000000 0.004495
vn 0.999990 -0.000000 0.004495
vn 0.000000 -1.000000 0.000000
vn 0.000000 -1.000000 0.000000
vn 0.000000 -1.000000 0.000000
vn 0.000000 -1.000000 0.000000
vn -0.999977 0.000000 -0.006743
vn -0.999977 0.000000 -0.006743
vn -0.999977 0.000000 -0.006743
vn -0.999977 0.000000 -0.006743
vn -0.000000 -1.000000 -0.000000
vn -0.000000 -1.000000 -0.000000
vn 0.905961 -0.000000 -0.423362
vn 0.905961 0.000000 -0.423362
vn 0.905961 -0.000003 -0.423362
vn 0.000000 1.000000 0.000000
vn 0.000000 1.000000 0.000000
vn -0.904733 0.000001 0.425980
vn -0.904733 0.000004 0.425979
vn -0.904733 0.000000 0.425980
vn 0.004318 0.000000 0.999991
vn 0.004484 0.000000 0.999990
vn 0.000000 0.000000 1.000000
vn 1.000000 0.000000 0.000000
vn 1.000000 0.000000 0.000000
vn 1.000000 0.000000 0.000000
vn 1.000000 0.000000 0.000000
vn 0.000000 0.000000 -1.000000
vn -0.001044 0.000000 -0.999999
vn -0.001085 0.000000 -0.999999
vn -0.515337 0.000000 0.856987
vn -0.515337 0.000000 0.856987
vn -0.515337 0.000000 0.856987
vn -0.515337 0.000000 0.856987
vn -0.515337 0.000000 0.856987
vn -0.515337 0.000000 0.856987
vn 0.000000 1.000000 0.000000
vn 0.000000 1.000000 0.000000
vn 0.000000 1.000000 0.000000
vn 0.000000 1.000000 0.000000
vn 0.765870 0.000001 0.642996
vn 0.765870 0.000000 0.642995
vn 0.765870 0.000000 0.642995
vn 0.765870 0.000001 0.642996
vn 0.765870 -0.000000 0.642995
vn 0.765870 -0.000000 0.642995
vn 0.000000 -1.000000 0.000000
vn 0.000000 -1.000000 0.000000
vn 0.000000 -1.000000 0.000000
vn 0.000000 -1.000000 0.000000
vn -0.765681 0.000000 -0.643220
vn -0.765681 0.000000 -0.643221
vn -0.765681 0.000000 -0.643221
vn -0.765681 0.000000 -0.643220
vn -0.765681 0.000000 -0.643221
vn -0.765681 0.000000 -0.643221
s 1
g pCube26 Third_Floor Floor_Layout
usemtl initialShadingGroup
f 59/119/1 60/120/2 4/4/3 3/3/4
s 2
f 3/3/5 4/4/6 17/27/7 18/30/8
s 3
f 5/5/9 6/6/10 63/123/11 64/125/12
s 4
f 19/32/13 20/33/14 2/10/15 1/9/16
s 5
f 60/120/17 61/121/18 17/28/19 4/4/20
s 2
f 10/18/21 9/15/22 6/6/23 5/5/24
s 4
f 7/7/25 8/8/26 12/21/27 11/20/28
s 5
f 9/16/29 62/122/30 63/124/31 6/12/32
s 4
f 7/13/25 11/19/28 14/24/33 13/23/34
s 6
f 28/45/35 10/17/36 15/25/37 27/44/38
s 2
f 10/17/21 5/14/24 16/26/39 15/25/40
s 3
f 5/14/9 64/126/12 65/127/41 16/26/42
s 2
f 18/30/8 17/27/7 9/15/22 10/18/21
s 7
f 28/45/43 29/46/44 18/29/45 10/17/46
s 4
f 11/20/28 12/21/27 20/33/14 19/32/13
s 5
f 17/28/19 61/121/18 62/122/30 9/16/29
s 4
f 19/31/13 1/1/16 22/36/47 21/35/48
s 1
f 59/119/1 3/3/4 23/37/49 58/118/50
s 2
f 3/3/5 18/29/8 24/38/51 23/37/52
s 8
f 18/29/53 29/46/54 30/47/55 24/38/56
s 9
f 40/56/57 41/57/58 48/43/59 49/111/60
s 10
f 48/40/61 41/58/62 42/59/63 52/48/64
s 11
f 40/55/65 49/39/66 31/49/67 39/54/68
s 6
f 11/19/69 28/45/35 27/44/38 14/24/70
s 7
f 11/19/71 19/31/72 29/46/44 28/45/43
s 8
f 30/47/55 29/46/54 19/31/73 21/35/74
s 11
f 43/62/75 39/54/68 31/49/67 25/42/76
f 37/52/77 34/106/78 39/54/68 43/62/75
s off
f 38/67/79 42/66/80 39/65/81 34/64/82
s 12
f 43/63/83 32/110/84 36/51/85 37/100/86
s 13
f 42/75/87 38/74/88 36/102/89 32/72/90
s off
f 33/108/91 38/98/92 34/77/93 35/104/94
f 42/71/95 41/70/96 40/69/97 39/68/98
s 10
f 52/48/64 42/59/63 32/61/99 50/41/100
s 14
f 32/60/101 43/62/102 25/42/103 50/41/104
s 11
f 34/50/78 37/101/77 47/81/105 53/86/106
s 12
f 37/53/86 36/103/85 46/82/107 56/95/108
s 13
f 36/73/89 38/99/88 51/83/109 46/93/110
s off
f 38/78/111 33/109/112 45/84/113 57/96/114
f 33/79/115 35/105/116 44/85/117 55/91/118
f 35/76/119 34/107/120 26/80/121 54/88/122
s 9
f 49/111/60 48/40/59 21/113/123 22/112/124
s 10
f 48/40/61 52/48/64 30/114/125 21/113/126
f 52/48/64 50/41/100 24/115/127 30/114/125
s 14
f 50/41/104 25/42/103 23/116/128 24/115/129
s 11
f 25/42/76 31/49/67 58/117/130 23/116/131
f 31/49/67 49/111/66 22/112/132 58/117/130
s 1
f 1/1/133 59/119/1 58/118/50 22/36/134
f 1/1/133 2/2/135 60/120/2 59/119/1
s 5
f 2/2/136 20/34/137 61/121/18 60/120/17
f 62/122/30 61/121/18 20/34/137 12/22/138
f 63/124/31 62/122/30 12/22/138 8/11/139
s 3
f 64/125/12 63/123/11 8/8/140 7/7/141
f 65/127/41 64/126/12 7/13/141 13/23/142
s off
f 47/128/143 26/133/144 44/132/145 45/131/146 51/130/147 46/129/148
f 47/94/149 46/92/150 15/135/151 16/134/152
s 15
f 46/92/153 51/97/154 27/136/155 15/135/156
f 51/97/154 45/90/157 14/137/158 27/136/155
s off
f 45/90/159 44/89/160 13/138/161 14/137/162
s 16
f 44/89/163 26/87/164 65/139/165 13/138/166
f 26/87/164 47/94/167 16/134/168 65/139/165
